<svg width="50" height="50" viewBox="0 0 50 50" fill="none" xmlns="http://www.w3.org/2000/svg">
<circle cx="25" cy="25" r="25" fill="#FEF5CF"/>
<path d="M32.9365 20.2379V17.0633C32.9365 16.2213 32.6021 15.4138 32.0067 14.8185C31.4113 14.2231 30.6039 13.8887 29.7619 13.8887H13.8889C13.0469 13.8887 12.2395 14.2231 11.6441 14.8185C11.0488 15.4138 10.7143 16.2213 10.7143 17.0633V26.5871C10.7143 27.429 11.0488 28.2365 11.6441 28.8319C12.2395 29.4272 13.0469 29.7617 13.8889 29.7617H17.0635M20.2381 36.1109H36.1111C36.9531 36.1109 37.7605 35.7764 38.3559 35.1811C38.9513 34.5857 39.2857 33.7782 39.2857 32.9363V23.4125C39.2857 22.5705 38.9513 21.7631 38.3559 21.1677C37.7605 20.5723 36.9531 20.2379 36.1111 20.2379H20.2381C19.3961 20.2379 18.5887 20.5723 17.9933 21.1677C17.398 21.7631 17.0635 22.5705 17.0635 23.4125V32.9363C17.0635 33.7782 17.398 34.5857 17.9933 35.1811C18.5887 35.7764 19.3961 36.1109 20.2381 36.1109ZM31.3492 28.1744C31.3492 29.0163 31.0147 29.8238 30.4194 30.4192C29.824 31.0145 29.0166 31.349 28.1746 31.349C27.3327 31.349 26.5252 31.0145 25.9298 30.4192C25.3345 29.8238 25 29.0163 25 28.1744C25 27.3324 25.3345 26.525 25.9298 25.9296C26.5252 25.3342 27.3327 24.9998 28.1746 24.9998C29.0166 24.9998 29.824 25.3342 30.4194 25.9296C31.0147 26.525 31.3492 27.3324 31.3492 28.1744Z" stroke="#FCCF10" stroke-width="2.38095" stroke-linecap="round" stroke-linejoin="round"/>
</svg>
