<svg width="50" height="50" viewBox="0 0 50 50" fill="none" xmlns="http://www.w3.org/2000/svg">
<circle cx="25" cy="25" r="25" fill="#FEF5CF"/>
<path d="M25 19.3333V25L29.25 29.25M37.75 25C37.75 26.6744 37.4202 28.3323 36.7795 29.8792C36.1387 31.4261 35.1996 32.8317 34.0156 34.0156C32.8317 35.1996 31.4261 36.1387 29.8792 36.7795C28.3323 37.4202 26.6744 37.75 25 37.75C23.3256 37.75 21.6677 37.4202 20.1208 36.7795C18.5739 36.1387 17.1683 35.1996 15.9844 34.0156C14.8004 32.8317 13.8613 31.4261 13.2205 29.8792C12.5798 28.3323 12.25 26.6744 12.25 25C12.25 21.6185 13.5933 18.3755 15.9844 15.9844C18.3755 13.5933 21.6185 12.25 25 12.25C28.3815 12.25 31.6245 13.5933 34.0156 15.9844C36.4067 18.3755 37.75 21.6185 37.75 25Z" stroke="#FCCF10" stroke-width="2" stroke-linecap="round" stroke-linejoin="round"/>
</svg>
