<svg width="20" height="20" viewBox="0 0 20 20" fill="none" xmlns="http://www.w3.org/2000/svg">
<path d="M13.3333 10.75V14.25C13.3333 17.1666 12.1667 18.3333 9.24999 18.3333H5.74999C2.83332 18.3333 1.66666 17.1666 1.66666 14.25V10.75C1.66666 7.83329 2.83332 6.66663 5.74999 6.66663H9.24999C12.1667 6.66663 13.3333 7.83329 13.3333 10.75Z" fill="#FCCF10"/>
<path d="M14.25 1.66663H10.75C8.24657 1.66663 7.03843 2.53228 6.74597 4.61571C6.66855 5.16721 7.13001 5.62496 7.68692 5.62496H9.25002C12.75 5.62496 14.375 7.24996 14.375 10.75V12.3131C14.375 12.87 14.8328 13.3314 15.3843 13.254C17.4677 12.9615 18.3334 11.7534 18.3334 9.24996V5.74996C18.3334 2.83329 17.1667 1.66663 14.25 1.66663Z" fill="#FCCF10"/>
</svg>
