<svg width="50" height="50" viewBox="0 0 50 50" fill="none" xmlns="http://www.w3.org/2000/svg">
<circle cx="25" cy="25" r="25" fill="#FEF5CF"/>
<path d="M28.25 29.3334H21.75C21.4627 29.3334 21.1871 29.4475 20.984 29.6507C20.7808 29.8538 20.6667 30.1294 20.6667 30.4167C20.6667 30.704 20.7808 30.9796 20.984 31.1827C21.1871 31.3859 21.4627 31.5 21.75 31.5H28.25C28.5373 31.5 28.8129 31.3859 29.016 31.1827C29.2192 30.9796 29.3333 30.704 29.3333 30.4167C29.3333 30.1294 29.2192 29.8538 29.016 29.6507C28.8129 29.4475 28.5373 29.3334 28.25 29.3334Z" fill="#FCCF10"/>
<path d="M21.75 27.1667H25C25.2873 27.1667 25.5629 27.0525 25.766 26.8494C25.9692 26.6462 26.0833 26.3707 26.0833 26.0833C26.0833 25.796 25.9692 25.5205 25.766 25.3173C25.5629 25.1141 25.2873 25 25 25H21.75C21.4627 25 21.1871 25.1141 20.984 25.3173C20.7808 25.5205 20.6667 25.796 20.6667 26.0833C20.6667 26.3707 20.7808 26.6462 20.984 26.8494C21.1871 27.0525 21.4627 27.1667 21.75 27.1667Z" fill="#FCCF10"/>
<path d="M33.385 21.0242L27.4917 14.5242C27.3904 14.412 27.2667 14.3222 27.1287 14.2606C26.9906 14.199 26.8412 14.1671 26.69 14.1667H19.1067C18.7467 14.1624 18.3895 14.2291 18.0553 14.3628C17.7211 14.4966 17.4166 14.6949 17.159 14.9464C16.9015 15.1979 16.696 15.4977 16.5544 15.8286C16.4127 16.1595 16.3376 16.5151 16.3333 16.875V33.125C16.3376 33.485 16.4127 33.8405 16.5544 34.1715C16.696 34.5024 16.9015 34.8021 17.159 35.0536C17.4166 35.3051 17.7211 35.5034 18.0553 35.6372C18.3895 35.771 18.7467 35.8377 19.1067 35.8334H30.8933C31.2533 35.8377 31.6105 35.771 31.9447 35.6372C32.2789 35.5034 32.5834 35.3051 32.841 35.0536C33.0985 34.8021 33.304 34.5024 33.4456 34.1715C33.5873 33.8405 33.6624 33.485 33.6667 33.125V21.75C33.666 21.4815 33.5656 21.2229 33.385 21.0242ZM27.1667 17.4167L30.135 20.6667H27.9683C27.8549 20.6598 27.7439 20.6305 27.642 20.5803C27.54 20.5301 27.449 20.4601 27.3744 20.3744C27.2998 20.2887 27.243 20.1889 27.2073 20.081C27.1716 19.9731 27.1578 19.8592 27.1667 19.7459V17.4167ZM30.8933 33.6667H19.1067C19.0312 33.6711 18.9557 33.6605 18.8843 33.6357C18.813 33.6108 18.7473 33.5721 18.6909 33.5218C18.6345 33.4715 18.5887 33.4105 18.5559 33.3424C18.5231 33.2744 18.5042 33.2005 18.5 33.125V16.875C18.5042 16.7996 18.5231 16.7257 18.5559 16.6576C18.5887 16.5895 18.6345 16.5286 18.6909 16.4783C18.7473 16.4279 18.813 16.3892 18.8843 16.3644C18.9557 16.3395 19.0312 16.329 19.1067 16.3334H25V19.7459C24.9825 20.5439 25.2814 21.3164 25.8314 21.8948C26.3815 22.4733 27.138 22.8107 27.9358 22.8334H31.5V33.125C31.4959 33.2005 31.4769 33.2744 31.4441 33.3424C31.4113 33.4105 31.3655 33.4715 31.3091 33.5218C31.2527 33.5721 31.187 33.6108 31.1157 33.6357C31.0443 33.6605 30.9688 33.6711 30.8933 33.6667Z" fill="#FCCF10"/>
</svg>
